<svg width="100" height="100" fill="none" xmlns="http://www.w3.org/2000/svg"><path d="M47 21h5v59h-5V21Z" fill="#0F006C"/><path d="M33 50h33v4H33v-4ZM30 35h39v5H30v-5ZM76 31h22v4H76v-4ZM76 40h19v5H76v-5ZM74 50h17v4H74v-4ZM23 31H1v4h22v-4ZM23 40H4v5h19v-5ZM25 50H7v4h18v-4Z" fill="#0F006C"/><path fill-rule="evenodd" clip-rule="evenodd" d="M37.16 20.275C41.734 19.077 46.593 18 49.5 18c2.908 0 7.767 1.077 12.34 2.275 4.677 1.219 9.393 2.66 12.166 3.534a6.503 6.503 0 0 1 2.966 1.953 6.148 6.148 0 0 1 1.434 3.174c2.511 18.188-3.317 31.667-10.388 40.585a48.84 48.84 0 0 1-10.608 9.965 30.427 30.427 0 0 1-4.416 2.539c-1.18.536-2.449.975-3.494.975-1.045 0-2.31-.439-3.494-.975a30.418 30.418 0 0 1-4.416-2.54 48.846 48.846 0 0 1-10.608-9.964c-7.071-8.918-12.9-22.397-10.388-40.585a6.148 6.148 0 0 1 1.434-3.174 6.503 6.503 0 0 1 2.966-1.953 270.596 270.596 0 0 1 12.167-3.534Zm22.588 4.65c-2.682-.716-5.483-1.381-7.748-1.71V35h17v5H52v10h14v4H52v23.354c.135-.058.269-.118.401-.179a25.161 25.161 0 0 0 3.668-2.148 40.883 40.883 0 0 0 8.81-8.433c5.873-7.545 10.713-18.95 8.627-34.34a5.248 5.248 0 0 0-1.19-2.686 5.395 5.395 0 0 0-2.463-1.652c-2.303-.74-6.22-1.96-10.105-2.991Zm-20.496 0c2.682-.716 5.483-1.381 7.748-1.71V35H30v5h17v10H33v4h14v23.354a15.313 15.313 0 0 1-.401-.179 25.161 25.161 0 0 1-3.668-2.148 40.89 40.89 0 0 1-8.81-8.433c-5.873-7.545-10.714-18.95-8.628-34.34a5.248 5.248 0 0 1 1.192-2.686 5.395 5.395 0 0 1 2.463-1.652 221.624 221.624 0 0 1 10.104-2.991Z" fill="#0F006C"/></svg>