<svg width="100" height="100" viewBox="0 0 100 100" fill="none" xmlns="http://www.w3.org/2000/svg">
<path d="M47 21H52V23.2152V35V40V50V54V77.3541V80H47V77.3536V54V50V40V35V23.2152V21Z" fill="#0F006C"/>
<path d="M33 50H47H52H66V54H52H47H33V50Z" fill="#0F006C"/>
<path d="M30 35H47H52H69V40H52H47H30V35Z" fill="#0F006C"/>
<path d="M76 31H98V35H76V31Z" fill="#0F006C"/>
<path d="M76 40H95V45H76V40Z" fill="#0F006C"/>
<path d="M74 50H91V54H74V50Z" fill="#0F006C"/>
<path d="M23 31H1V35H23V31Z" fill="#0F006C"/>
<path d="M23 40H4V45H23V40Z" fill="#0F006C"/>
<path d="M25 50H7V54H25V50Z" fill="#0F006C"/>
<path fill-rule="evenodd" clip-rule="evenodd" d="M37.1606 20.275C41.7331 19.0766 46.5921 18 49.5 18C52.4079 18 57.2669 19.0766 61.8394 20.275C66.5173 21.4937 71.2331 22.9359 74.0061 23.8094C75.1654 24.1785 76.1933 24.8553 76.9716 25.7622C77.7498 26.6691 78.2469 27.7693 78.4058 28.9362C80.9175 47.1241 75.0891 60.6034 68.0176 69.5206C65.0188 73.3352 61.4432 76.6944 57.4102 79.4859C56.0157 80.4519 54.5381 81.3013 52.9936 82.025C51.8136 82.5612 50.5451 83 49.5 83C48.4549 83 47.1906 82.5612 46.0064 82.025C44.4619 81.3014 42.9843 80.4519 41.5898 79.4859C37.5568 76.6943 33.9812 73.3351 30.9824 69.5206C23.9109 60.6034 18.0825 47.1241 20.5942 28.9362C20.7531 27.7693 21.2502 26.6691 22.0284 25.7622C22.8067 24.8553 23.8346 24.1785 24.9939 23.8094C29.0194 22.537 33.0761 21.3586 37.1606 20.275ZM59.748 24.925C57.0658 24.2088 54.2648 23.544 52 23.2152V35H69V40H52V50H66V54H52V77.3541C52.1348 77.2964 52.2688 77.2364 52.4015 77.175C53.6842 76.5627 54.9113 75.8439 56.0695 75.0266C59.419 72.6645 62.3885 69.8221 64.879 66.5944C70.752 59.0491 75.5925 47.6434 73.5065 32.2537C73.3746 31.2663 72.9617 30.3354 72.3154 29.568C71.669 28.8007 70.8154 28.2279 69.8525 27.9156C67.5495 27.1766 63.633 25.9562 59.748 24.925ZM39.252 24.925C41.9342 24.2088 44.7352 23.544 47 23.2152V35H30V40H47V50H33V54H47V77.3536C46.8654 77.2961 46.7313 77.2363 46.5985 77.175C45.3158 76.5627 44.0887 75.8439 42.9305 75.0266C39.5811 72.6644 36.6115 69.822 34.121 66.5944C28.248 59.0491 23.4075 47.6434 25.4935 32.2537C25.6254 31.2663 26.0383 30.3354 26.6846 29.568C27.331 28.8007 28.1846 28.2279 29.1475 27.9156C32.4907 26.839 35.8598 25.8419 39.252 24.925Z" fill="#0F006C"/>
</svg>
