<svg width="216" height="100" fill="none" xmlns="http://www.w3.org/2000/svg"><path d="M42.762 31.435C45.629 30.679 48.676 30 50.5 30c1.824 0 4.87.68 7.738 1.435 2.934.769 5.891 1.678 7.63 2.23.727.232 1.372.66 1.86 1.231.488.572.8 1.266.9 2.002 1.575 11.473-2.08 19.975-6.515 25.6a30.698 30.698 0 0 1-6.652 6.285 19.055 19.055 0 0 1-2.77 1.602c-.74.338-1.536.615-2.191.615-.655 0-1.448-.277-2.19-.615a19.037 19.037 0 0 1-2.77-1.602 30.703 30.703 0 0 1-6.653-6.285c-4.434-5.625-8.09-14.127-6.514-25.6.1-.736.411-1.43.9-2.002a4.075 4.075 0 0 1 1.859-1.232 168.928 168.928 0 0 1 7.63-2.229Z" fill="#0F006C"/><path d="M44.017 34.225C46.419 33.58 48.972 33 50.5 33c1.528 0 4.08.58 6.483 1.225 2.458.656 4.936 1.433 6.393 1.903.61.199 1.15.563 1.558 1.052.41.488.67 1.08.754 1.709 1.32 9.793-1.743 17.051-5.458 21.853a25.929 25.929 0 0 1-5.574 5.366c-.733.52-1.509.977-2.32 1.367-.62.289-1.287.525-1.836.525-.55 0-1.213-.236-1.836-.525a15.883 15.883 0 0 1-2.32-1.367 25.938 25.938 0 0 1-5.574-5.366c-3.715-4.802-6.778-12.06-5.458-21.853a3.35 3.35 0 0 1 .754-1.71 3.412 3.412 0 0 1 1.558-1.05c2.115-.686 4.246-1.32 6.393-1.904Z" fill="#fff"/><path fill="#0F006C" d="M49 32h3v37h-3z"/><path d="M40 50h21v3H40v-3ZM38 41h25v3H38v-3ZM67 38h14v3H67v-3ZM67 44h12v3H67v-3ZM66 50h11v3H66v-3ZM34 38H20v3h14v-3ZM34 44H22v3h12v-3ZM35 50H24v3h11v-3ZM110.34 63.536h4.708V66h-13.64v-2.464h4.004V37.664h-4.004V35.2h23.804v7.216h-2.816v-3.784l-.88-.968H110.34V49.72h7.964l.66-.66v-2.112h2.816V55h-2.816v-2.112l-.66-.704h-7.964v11.352Zm18.482-25.872V35.2h4.576c1.32 0 2.743-.059 4.268-.176a59.723 59.723 0 0 1 4.488-.176c1.613 0 3.197.161 4.752.484 1.555.293 2.933.807 4.136 1.54a8.463 8.463 0 0 1 2.904 2.948c.763 1.203 1.144 2.713 1.144 4.532 0 1.73-.381 3.227-1.144 4.488a9.388 9.388 0 0 1-3.036 3.036c-1.232.792-2.669 1.379-4.312 1.76a21.732 21.732 0 0 1-5.016.572h-1.936l-1.1-.088a10.6 10.6 0 0 1-.792-.088v9.504h4.4V66h-13.332v-2.464h4.004V37.664h-4.004Zm8.932 13.86c.147.059.367.103.66.132.323 0 .66.015 1.012.044.352.03.689.044 1.012.044h.792c1.144 0 2.215-.132 3.212-.396 1.027-.293 1.921-.733 2.684-1.32.763-.587 1.364-1.35 1.804-2.288.44-.939.66-2.068.66-3.388 0-2.405-.763-4.18-2.288-5.324-1.496-1.144-3.549-1.716-6.16-1.716-.792 0-1.452.03-1.98.088-.528.03-.997.088-1.408.176v13.948ZM163.889 66h-10.78v-2.464h3.432L167.937 35.2h4.664l10.428 28.336h3.3V66h-12.584v-2.464h3.916l-2.86-7.744h-11.704l-2.992 7.744h3.784V66Zm.22-12.672h9.944l-3.608-10.164-1.1-4.664h-.176l-1.276 4.752-3.784 10.076Z" fill="#0F006C"/></svg>